<svg width="262" height="68" viewBox="0 0 262 68" fill="none" xmlns="http://www.w3.org/2000/svg">
<rect x="0.25" y="0.75" width="261.5" height="66.5" rx="33.25" stroke="url(#paint0_linear_266_63)" stroke-width="0.5"/>
<path d="M77.2291 20.54C77.6957 20.54 78.0924 20.6233 78.4191 20.79C78.7524 20.95 79.0057 21.1733 79.1791 21.46C79.3524 21.74 79.4391 22.06 79.4391 22.42C79.4391 22.8133 79.3291 23.16 79.1091 23.46C78.8891 23.7533 78.6057 23.9533 78.2591 24.06V24.11C78.6657 24.2233 78.9857 24.4433 79.2191 24.77C79.4524 25.0967 79.5691 25.5133 79.5691 26.02C79.5691 26.4 79.4791 26.7433 79.2991 27.05C79.1257 27.3567 78.8657 27.6 78.5191 27.78C78.1724 27.9533 77.7557 28.04 77.2691 28.04C76.5757 28.04 76.0024 27.86 75.5491 27.5C75.0957 27.14 74.8457 26.63 74.7991 25.97H75.6591C75.6924 26.35 75.8491 26.6633 76.1291 26.91C76.4157 27.15 76.7924 27.27 77.2591 27.27C77.7324 27.27 78.0924 27.1467 78.3391 26.9C78.5924 26.6467 78.7191 26.3233 78.7191 25.93C78.7191 25.4033 78.5524 25.03 78.2191 24.81C77.8857 24.59 77.3757 24.48 76.6891 24.48H76.4491V23.72H76.6991C77.9524 23.7067 78.5791 23.3033 78.5791 22.51C78.5791 22.1433 78.4591 21.8533 78.2191 21.64C77.9857 21.4267 77.6457 21.32 77.1991 21.32C76.7924 21.32 76.4657 21.42 76.2191 21.62C75.9724 21.8133 75.8224 22.0733 75.7691 22.4H74.8891C74.9424 21.82 75.1824 21.3667 75.6091 21.04C76.0424 20.7067 76.5824 20.54 77.2291 20.54ZM85.4077 21.48H81.9177V23.77C82.0644 23.55 82.2877 23.3667 82.5877 23.22C82.8877 23.0733 83.2111 23 83.5577 23C84.1111 23 84.5611 23.12 84.9077 23.36C85.2611 23.5933 85.5111 23.8967 85.6577 24.27C85.8111 24.6367 85.8877 25.0267 85.8877 25.44C85.8877 26.1933 85.6777 26.81 85.2577 27.29C84.8377 27.7633 84.2244 28 83.4177 28C82.7111 28 82.1411 27.8233 81.7077 27.47C81.2811 27.1167 81.0144 26.65 80.9077 26.07H81.7777C81.8711 26.43 82.0611 26.7133 82.3477 26.92C82.6411 27.1267 82.9977 27.23 83.4177 27.23C83.9511 27.23 84.3511 27.07 84.6177 26.75C84.8911 26.43 85.0277 26.0033 85.0277 25.47C85.0277 24.9233 84.8911 24.5067 84.6177 24.22C84.3511 23.9267 83.9511 23.78 83.4177 23.78C83.0577 23.78 82.7477 23.8733 82.4877 24.06C82.2277 24.2467 82.0344 24.5 81.9077 24.82H81.0777V20.69H85.4077V21.48ZM87.7256 27.02C87.359 26.3733 87.1756 25.48 87.1756 24.34C87.1756 23.2 87.359 22.3067 87.7256 21.66C88.0923 21.0133 88.7456 20.69 89.6856 20.69C90.6256 20.69 91.279 21.0133 91.6456 21.66C92.0123 22.3 92.1956 23.1933 92.1956 24.34C92.1956 25.48 92.0123 26.3733 91.6456 27.02C91.279 27.6667 90.6256 27.99 89.6856 27.99C88.7456 27.99 88.0923 27.6667 87.7256 27.02ZM91.1956 25.81C91.2756 25.4033 91.3156 24.9133 91.3156 24.34C91.3156 23.76 91.2756 23.27 91.1956 22.87C91.1223 22.4633 90.9656 22.1333 90.7256 21.88C90.4923 21.6267 90.1456 21.5 89.6856 21.5C89.2256 21.5 88.8756 21.6267 88.6356 21.88C88.4023 22.1333 88.249 22.4633 88.1756 22.87C88.1023 23.27 88.0656 23.76 88.0656 24.34C88.0656 24.92 88.1023 25.41 88.1756 25.81C88.249 26.21 88.4023 26.54 88.6356 26.8C88.8756 27.0533 89.2256 27.18 89.6856 27.18C90.1456 27.18 90.4923 27.0533 90.7256 26.8C90.9656 26.54 91.1223 26.21 91.1956 25.81ZM99.123 24.74H97.003V26.89H96.153V24.74H94.033V23.94H96.153V21.79H97.003V23.94H99.123V24.74ZM108.293 21.07V21.8H106.463V28H105.553V21.8H103.723V21.07H108.293ZM110.402 21.79V24.15H112.862V24.86H110.402V27.28H113.162V28H109.492V21.07H113.162V21.79H110.402ZM118.781 26.48H115.701L115.161 28H114.231L116.751 21.07H117.751L120.261 28H119.321L118.781 26.48ZM118.521 25.76L117.241 22.18L115.961 25.76H118.521ZM128.525 21.07V28H127.605V22.95L125.285 28H124.695L122.365 22.95V28H121.455V21.07H122.385L124.995 26.75L127.595 21.07H128.525ZM139.195 21C139.842 21 140.432 21.15 140.965 21.45C141.505 21.75 141.932 22.17 142.245 22.71C142.559 23.2433 142.715 23.85 142.715 24.53C142.715 25.2033 142.559 25.81 142.245 26.35C141.932 26.89 141.505 27.3133 140.965 27.62C140.432 27.92 139.842 28.07 139.195 28.07C138.549 28.07 137.955 27.92 137.415 27.62C136.875 27.3133 136.449 26.89 136.135 26.35C135.822 25.81 135.665 25.2033 135.665 24.53C135.665 23.85 135.822 23.2433 136.135 22.71C136.449 22.17 136.875 21.75 137.415 21.45C137.955 21.15 138.549 21 139.195 21ZM139.195 21.81C138.702 21.81 138.255 21.9233 137.855 22.15C137.462 22.37 137.152 22.6867 136.925 23.1C136.699 23.5133 136.585 23.99 136.585 24.53C136.585 25.07 136.699 25.5467 136.925 25.96C137.152 26.3733 137.462 26.6933 137.855 26.92C138.255 27.1467 138.702 27.26 139.195 27.26C139.689 27.26 140.132 27.1467 140.525 26.92C140.919 26.6933 141.225 26.3733 141.445 25.96C141.672 25.5467 141.785 25.07 141.785 24.53C141.785 23.99 141.672 23.5133 141.445 23.1C141.225 22.6867 140.919 22.37 140.525 22.15C140.132 21.9233 139.689 21.81 139.195 21.81ZM147.748 21.07V21.8H144.758V24.15H147.118V24.87H144.758V28H143.848V21.07H147.748ZM61.5252 41.79V44.15H63.9852V44.86H61.5252V47.28H64.2852V48H60.6152V41.07H64.2852V41.79H61.5252ZM68.5741 44.54L70.7041 48H69.7041L68.0141 45.27L66.4241 48H65.4141L67.5541 44.53L65.4141 41.07H66.4241L68.1141 43.81L69.7041 41.07H70.7141L68.5741 44.54ZM72.8631 45.14V48H71.9531V41.07H74.2031C74.7231 41.07 75.1631 41.16 75.5231 41.34C75.8831 41.5133 76.1531 41.7567 76.3331 42.07C76.5131 42.3767 76.6031 42.7233 76.6031 43.11C76.6031 43.6967 76.4031 44.1833 76.0031 44.57C75.6098 44.95 75.0098 45.14 74.2031 45.14H72.8631ZM74.2031 44.42C74.7031 44.42 75.0731 44.3067 75.3131 44.08C75.5598 43.8467 75.6831 43.5233 75.6831 43.11C75.6831 42.6967 75.5631 42.3767 75.3231 42.15C75.0831 41.9167 74.7098 41.8 74.2031 41.8H72.8631V44.42H74.2031ZM78.6444 41.79V44.15H81.1044V44.86H78.6444V47.28H81.4044V48H77.7344V41.07H81.4044V41.79H78.6444ZM86.4032 48L84.5832 45.14H83.6932V48H82.7832V41.07H85.0332C85.5532 41.07 85.9932 41.16 86.3532 41.34C86.7132 41.5133 86.9832 41.7567 87.1632 42.07C87.3432 42.3767 87.4332 42.7233 87.4332 43.11C87.4332 43.61 87.2832 44.0433 86.9832 44.41C86.6832 44.7767 86.2332 45.0067 85.6332 45.1L87.5432 48H86.4032ZM83.6932 44.42H85.0332C85.5332 44.42 85.9032 44.3067 86.1432 44.08C86.3899 43.8467 86.5132 43.5233 86.5132 43.11C86.5132 42.6967 86.3932 42.3767 86.1532 42.15C85.9132 41.9167 85.5399 41.8 85.0332 41.8H83.6932V44.42ZM93.2151 41.07V41.8H91.3851V48H90.4751V41.8H88.6451V41.07H93.2151ZM98.3221 41.79V44.15H100.782V44.86H98.3221V47.28H101.082V48H97.4121V41.07H101.082V41.79H98.3221ZM107.941 48H107.031L103.371 42.5V48H102.461V41.07H103.371L107.031 46.57V41.07H107.941V48ZM112.613 41C113.333 41 113.973 41.17 114.533 41.51C115.1 41.85 115.517 42.34 115.783 42.98H114.683C114.483 42.6 114.203 42.31 113.843 42.11C113.483 41.91 113.073 41.81 112.613 41.81C112.12 41.81 111.673 41.9233 111.273 42.15C110.88 42.37 110.57 42.6867 110.343 43.1C110.123 43.5133 110.013 43.99 110.013 44.53C110.013 45.07 110.123 45.5467 110.343 45.96C110.57 46.3733 110.88 46.6933 111.273 46.92C111.673 47.1467 112.12 47.26 112.613 47.26C113.32 47.26 113.893 47.0533 114.333 46.64C114.78 46.2267 115.04 45.6667 115.113 44.96H112.253V44.24H116.073V44.96C116.013 45.5467 115.823 46.0767 115.503 46.55C115.19 47.0233 114.78 47.3933 114.273 47.66C113.773 47.9267 113.22 48.06 112.613 48.06C111.967 48.06 111.373 47.91 110.833 47.61C110.293 47.3033 109.867 46.8833 109.553 46.35C109.24 45.81 109.083 45.2033 109.083 44.53C109.083 43.85 109.24 43.2433 109.553 42.71C109.867 42.17 110.293 41.75 110.833 41.45C111.373 41.15 111.967 41 112.613 41ZM118.127 41.07V48H117.217V41.07H118.127ZM125.109 48H124.199L120.539 42.5V48H119.629V41.07H120.539L124.199 46.57V41.07H125.109V48ZM127.521 41.79V44.15H129.981V44.86H127.521V47.28H130.281V48H126.611V41.07H130.281V41.79H127.521ZM132.57 41.79V44.15H135.03V44.86H132.57V47.28H135.33V48H131.66V41.07H135.33V41.79H132.57ZM140.329 48L138.509 45.14H137.619V48H136.709V41.07H138.959C139.479 41.07 139.919 41.16 140.279 41.34C140.639 41.5133 140.909 41.7567 141.089 42.07C141.269 42.3767 141.359 42.7233 141.359 43.11C141.359 43.61 141.209 44.0433 140.909 44.41C140.609 44.7767 140.159 45.0067 139.559 45.1L141.469 48H140.329ZM137.619 44.42H138.959C139.459 44.42 139.829 44.3067 140.069 44.08C140.316 43.8467 140.439 43.5233 140.439 43.11C140.439 42.6967 140.319 42.3767 140.079 42.15C139.839 41.9167 139.466 41.8 138.959 41.8H137.619V44.42ZM147.401 46.06C147.401 46.4067 147.311 46.7333 147.131 47.04C146.951 47.3467 146.684 47.5967 146.331 47.79C145.978 47.9767 145.554 48.07 145.061 48.07C144.621 48.07 144.224 48 143.871 47.86C143.518 47.7133 143.238 47.5067 143.031 47.24C142.831 46.9667 142.731 46.6433 142.731 46.27H143.701C143.728 46.5833 143.851 46.8367 144.071 47.03C144.298 47.2233 144.628 47.32 145.061 47.32C145.508 47.32 145.861 47.2067 146.121 46.98C146.381 46.7533 146.511 46.4633 146.511 46.11C146.511 45.8433 146.438 45.6333 146.291 45.48C146.144 45.32 145.961 45.2 145.741 45.12C145.521 45.04 145.228 44.96 144.861 44.88C144.401 44.7733 144.028 44.6633 143.741 44.55C143.461 44.4367 143.221 44.2533 143.021 44C142.828 43.7467 142.731 43.3967 142.731 42.95C142.731 42.5633 142.824 42.2233 143.011 41.93C143.198 41.6367 143.464 41.41 143.811 41.25C144.164 41.0833 144.574 41 145.041 41C145.674 41 146.188 41.1567 146.581 41.47C146.981 41.7767 147.211 42.2033 147.271 42.75H146.261C146.234 42.4767 146.104 42.2433 145.871 42.05C145.644 41.8567 145.338 41.76 144.951 41.76C144.558 41.76 144.238 41.86 143.991 42.06C143.744 42.2533 143.621 42.54 143.621 42.92C143.621 43.1933 143.694 43.41 143.841 43.57C143.988 43.73 144.168 43.85 144.381 43.93C144.601 44.01 144.904 44.0933 145.291 44.18C145.744 44.2867 146.111 44.3967 146.391 44.51C146.671 44.6167 146.908 44.7933 147.101 45.04C147.301 45.2867 147.401 45.6267 147.401 46.06Z" fill="#FDFE62" fill-opacity="0.6"/>
<rect x="178" y="4" width="60" height="60" rx="30" fill="#1D1900" fill-opacity="0.5"/>
<path d="M201.997 14H193V42.715H194.044V35.4933H194.658V42.715H195.089V38.5133H195.701V42.7133H196.132V35.98H196.746V42.7133H197.176V37.3H197.791V42.7167H198.282V38.515H198.833V42.715H199.326V36.3967H199.94V42.7167H200.369V35.495H200.985V42.7167H202.027C201.997 33.1667 201.997 23.6217 201.997 14.0017V14ZM212.467 26.7067H203.533V42.715H204.514V38.9983H205.129V42.715H205.557V36.8817H206.173V42.715H206.603V36.8817H207.217V42.715H207.707V38.0983H208.26V42.715H208.752V38.0983H209.366V42.715H209.796V37.7167H210.411V42.7167H210.841V36.395H211.453V42.7167H212.499C212.469 38.2383 212.469 31.12 212.469 26.7083L212.467 26.7067ZM215.017 35.4933H215.632V42.6433H216.06V39.3467H216.676V42.6467H217.167V38.0267H217.72V42.6433H218.21V35.91H218.826V42.6433H219.254V38.93H219.869V42.645H220.299V37.2283H220.914V42.645H221.344V36.395H221.956V42.645H223V33.2333H214.064V42.6433H215.045C215.015 40.3183 215.015 37.9217 215.015 35.4917L215.017 35.4933ZM206.143 44.66H205.592V54H206.143V44.66ZM199.88 44.66H199.389V53.86H199.88V44.66ZM210.935 53.6533H211.425V44.6567H210.935V53.6533ZM200.433 44.6583V53.6533H200.924V44.6567L200.433 44.6583ZM207.188 44.6583H206.698V53.375H207.188V44.6583ZM197.76 44.6583H197.27V53.375H197.76V44.6583ZM212.469 44.6583H211.978V52.82H212.469V44.6583ZM196.226 52.75H196.717V44.6567H196.226V52.75ZM209.858 52.68H210.349V44.625H209.858V52.68ZM203.534 52.61H204.025V44.6267H203.534V52.61ZM208.754 51.9867H209.307V44.625H208.754V51.9867ZM194.108 52.3333H194.598V44.625H194.108V52.3333ZM207.771 51.9867H208.262V44.625H207.771V51.9867ZM201.999 44.6583H201.506V52.02H201.997L201.999 44.6583ZM216.645 51.43V44.6267H216.093V51.4317L216.645 51.43ZM198.835 51.36V44.6267H198.283V51.3617L198.835 51.36ZM218.704 44.66H218.213V51.7433H218.704V44.6567V44.66ZM193.556 44.66H193.003V51.3267H193.556V44.6567V44.66ZM215.567 51.3583V44.625H215.076V51.36L215.567 51.3583ZM217.687 51.2883V44.625H217.196V51.2917H217.687V51.2883ZM195.147 51.2883H195.639V44.625H195.148V51.2917L195.147 51.2883ZM220.36 51.2217H220.85V44.6933H220.36V51.2217ZM221.402 50.8383H221.955V44.6567H221.402V50.8383ZM205.098 44.6567H204.545V50.6983H205.098V44.6567ZM213.973 50.9783H214.464V44.6567H213.973V50.9783ZM222.906 44.655H222.416V50.6283H222.906V44.655ZM219.743 44.655H219.252V50.6283H219.744L219.743 44.655Z" fill="#FDFE62"/>
<defs>
<linearGradient id="paint0_linear_266_63" x1="77.0588" y1="2.23276" x2="109.489" y2="104.571" gradientUnits="userSpaceOnUse">
<stop stop-color="#483F03" stop-opacity="0"/>
<stop offset="1" stop-color="#FDFE62" stop-opacity="0.4"/>
</linearGradient>
</defs>
</svg>
