<svg width="133" height="46" viewBox="0 0 133 46" fill="none" xmlns="http://www.w3.org/2000/svg">
<path d="M3.94616 10.7903C2.81015 11.4611 1.85537 12.0248 1.19942 12.5319C0.504253 13.0701 0.00919218 13.645 0.00898005 14.3428C0.00876798 15.0406 0.503479 15.6154 1.19832 16.1535C1.85396 16.6604 2.8084 17.224 3.944 17.8945L4.08054 17.9752C5.21614 18.6457 6.17059 19.2093 7.02908 19.5964C7.94031 20.0067 8.91376 20.2988 10.0955 20.2987C11.2773 20.2986 12.251 20.0063 13.1624 19.5958C14.0212 19.2085 14.9759 18.6447 16.1119 17.9739L16.2485 17.8932C17.3845 17.2225 18.3393 16.6587 18.9953 16.1516C19.6904 15.6134 20.1855 15.0385 20.1857 14.3407C20.1859 13.6429 19.6912 13.0681 18.9964 12.53C18.3407 12.0231 17.3863 11.4595 16.2507 10.789L16.1155 10.7092C14.9799 10.0386 14.0255 9.47503 13.167 9.08789C12.2557 8.67761 11.2823 8.38549 10.1005 8.38562C8.91874 8.38574 7.9451 8.67806 7.03363 9.08854C6.1749 9.47586 5.22011 10.0396 4.0841 10.7104L3.94616 10.7903ZM18.1463 2.40547C17.0102 3.07625 16.0555 3.64003 15.3995 4.14709C14.7043 4.68529 14.2093 5.2602 14.2091 5.95801C14.2089 6.65582 14.7036 7.23063 15.3984 7.76868C16.0541 8.27561 17.0085 8.83918 18.1441 9.50973L18.2806 9.59035C19.4162 10.2609 20.3707 10.8245 21.2292 11.2116C22.1404 11.6219 23.1139 11.914 24.2956 11.9139C25.4774 11.9138 26.451 11.6214 27.3625 11.211C28.2213 10.8236 29.176 10.2599 30.312 9.58908L30.45 9.50762C31.586 8.83684 32.5408 8.27306 33.1967 7.766C33.8919 7.2278 34.387 6.65289 34.3872 5.95507C34.3874 5.25726 33.8927 4.68246 33.1978 4.14441C32.5422 3.63749 31.5877 3.07391 30.4521 2.40337L30.317 2.32354C29.1814 1.65299 28.2269 1.08942 27.3684 0.702278C26.4572 0.291991 25.4837 -0.000124942 24.302 4.00901e-08C23.1202 0.000125023 22.1465 0.292448 21.2351 0.702928C20.3763 1.09025 19.4229 1.65323 18.2869 2.32401L18.1463 2.40547ZM18.1506 19.1777C17.0146 19.8485 16.0598 20.4122 15.4039 20.9193C14.7087 21.4575 14.2137 22.0324 14.2134 22.7302C14.2132 23.428 14.7079 24.0028 15.4028 24.5409C16.0584 25.0478 17.0129 25.6114 18.1485 26.2819L18.2864 26.3634C19.422 27.0339 20.3764 27.5975 21.2349 27.9846C22.1461 28.3949 23.1196 28.687 24.3014 28.6869C25.4831 28.6868 26.4568 28.3945 27.3682 27.984C28.227 27.5967 29.1818 27.0329 30.3178 26.3621L30.4544 26.2814C31.5904 25.6106 32.5451 25.0469 33.2011 24.5398C33.8963 24.0016 34.3913 23.4267 34.3915 22.7289C34.3918 22.0311 33.897 21.4563 33.2022 20.9182C32.5466 20.4113 31.5921 19.8477 30.4565 19.1772L30.3186 19.0958C29.183 18.4252 28.2299 17.8624 27.3701 17.4745C26.4589 17.0642 25.4854 16.7721 24.3036 16.7722C23.1218 16.7723 22.1482 17.0647 21.2367 17.4751C20.378 17.8625 19.4232 18.4262 18.2872 19.097L18.1506 19.1777ZM32.3507 10.7929C31.2147 11.4636 30.2599 12.0274 29.604 12.5345C28.9088 13.0727 28.4137 13.6476 28.4135 14.3454C28.4133 15.0432 28.908 15.618 29.6029 16.1561C30.2585 16.663 31.213 17.2266 32.3486 17.8971L32.4865 17.9785C33.6221 18.6491 34.5765 19.2127 35.435 19.5998C36.3462 20.0101 37.3197 20.3022 38.5015 20.3021C39.6832 20.302 40.6569 20.0096 41.5683 19.5992C42.4271 19.2118 43.3819 18.6481 44.5179 17.9773L44.6558 17.8958C45.7918 17.225 46.7466 16.6613 47.4025 16.1542C48.0977 15.616 48.5928 15.0411 48.593 14.3433C48.5932 13.6455 48.0985 13.0707 47.4036 12.5326C46.748 12.0257 45.7936 11.4621 44.658 10.7916L44.5201 10.7101C43.3845 10.0396 42.4314 9.47681 41.5715 9.08888C40.6603 8.67859 39.6869 8.38647 38.5051 8.3866C37.3233 8.38672 36.3497 8.67905 35.4382 9.08953C34.5795 9.47685 33.6247 10.0406 32.49 10.7106L32.3507 10.7929Z" fill="#FDFE62"/>
<path d="M3.93718 27.5801C2.80117 28.2508 1.84639 28.8146 1.19044 29.3217C0.495273 29.8599 0.000212194 30.4348 6.81587e-08 31.1326C-0.000212007 31.8304 0.494499 32.4052 1.18934 32.9433C1.84498 33.4502 2.79942 34.0138 3.93502 34.6843L4.07156 34.7649C5.20716 35.4355 6.16161 35.9991 7.0201 36.3862C7.93133 36.7965 8.90478 37.0886 10.0866 37.0885C11.2683 37.0883 12.242 36.796 13.1534 36.3855C14.0122 35.9982 14.967 35.4344 16.103 34.7637L16.2396 34.683C17.3756 34.0122 18.3304 33.4484 18.9863 32.9414C19.6815 32.4032 20.1765 31.8283 20.1767 31.1305C20.177 30.4326 19.6822 29.8578 18.9874 29.3198C18.3318 28.8129 17.3773 28.2493 16.2417 27.5787L16.1065 27.4989C14.9709 26.8284 14.0165 26.2648 13.158 25.8777C12.2468 25.4674 11.2733 25.1753 10.0915 25.1754C8.90976 25.1755 7.93612 25.4678 7.02465 25.8783C6.16592 26.2656 5.21113 26.8294 4.07512 27.5002L3.93718 27.5801ZM18.1373 19.1952C17.0013 19.866 16.0465 20.4298 15.3905 20.9369C14.6954 21.4751 14.2003 22.05 14.2001 22.7478C14.1999 23.4456 14.6946 24.0204 15.3894 24.5585C16.0451 25.0654 16.9995 25.6289 18.1351 26.2995L18.2717 26.3801C19.4073 27.0507 20.3617 27.6142 21.2202 28.0014C22.1314 28.4117 23.1049 28.7038 24.2867 28.7037C25.4684 28.7035 26.4421 28.4112 27.3535 28.0007C28.2123 27.6134 29.1671 27.0496 30.3031 26.3788L30.441 26.2974C31.577 25.6266 32.5318 25.0628 33.1877 24.5558C33.8829 24.0176 34.378 23.4427 34.3782 22.7448C34.3784 22.047 33.8837 21.4722 33.1889 20.9342C32.5332 20.4273 31.5788 19.8637 30.4432 19.1931L30.308 19.1133C29.1724 18.4428 28.2179 17.8792 27.3594 17.492C26.4482 17.0818 25.4748 16.7896 24.293 16.7898C23.1112 16.7899 22.1376 17.0822 21.2261 17.4927C20.3674 17.88 19.4139 18.443 18.2779 19.1138L18.1373 19.1952ZM18.1416 35.9674C17.0056 36.6382 16.0508 37.202 15.3949 37.7091C14.6997 38.2473 14.2047 38.8222 14.2045 39.52C14.2043 40.2178 14.699 40.7926 15.3938 41.3307C16.0494 41.8376 17.0039 42.4012 18.1395 43.0717L18.2774 43.1531C19.413 43.8237 20.3674 44.3872 21.2259 44.7744C22.1371 45.1847 23.1106 45.4768 24.2924 45.4767C25.4742 45.4765 26.4478 45.1842 27.3593 44.7737C28.218 44.3864 29.1728 43.8226 30.3088 43.1519L30.4454 43.0712C31.5814 42.4004 32.5362 41.8366 33.1921 41.3296C33.8873 40.7914 34.3823 40.2165 34.3826 39.5187C34.3828 38.8208 33.8881 38.246 33.1932 37.708C32.5376 37.2011 31.5831 36.6375 30.4475 35.9669L30.3096 35.8855C29.174 35.215 28.2209 34.6522 27.3611 34.2643C26.4499 33.854 25.4764 33.5619 24.2946 33.562C23.1129 33.5621 22.1392 33.8544 21.2278 34.2649C20.369 34.6522 19.4142 35.216 18.2782 35.8868L18.1416 35.9674ZM32.3417 27.5826C31.2057 28.2534 30.2509 28.8172 29.595 29.3243C28.8998 29.8625 28.4048 30.4374 28.4046 31.1352C28.4043 31.833 28.8991 32.4078 29.5939 32.9458C30.2495 33.4528 31.204 34.0163 32.3396 34.6869L32.4775 34.7683C33.6131 35.4389 34.5675 36.0024 35.426 36.3896C36.3372 36.7999 37.3107 37.092 38.4925 37.0919C39.6742 37.0917 40.6479 36.7994 41.5594 36.3889C42.4181 36.0016 43.3729 35.4378 44.5089 34.767L44.6468 34.6856C45.7828 34.0148 46.7376 33.451 47.3936 32.944C48.0887 32.4058 48.5838 31.8308 48.584 31.133C48.5842 30.4352 48.0895 29.8604 47.3947 29.3224C46.739 28.8154 45.7846 28.2519 44.649 27.5813L44.5111 27.4999C43.3755 26.8294 42.4224 26.2666 41.5625 25.8786C40.6513 25.4684 39.6779 25.1762 38.4961 25.1764C37.3143 25.1765 36.3407 25.4688 35.4292 25.8793C34.5705 26.2666 33.6157 26.8304 32.481 27.5004L32.3417 27.5826Z" fill="#FDFE62" fill-opacity="0.5"/>
<path d="M87.7562 7.27457C89.0015 7.27457 90.1399 7.55238 91.1714 8.108C92.2154 8.66362 93.033 9.43666 93.6242 10.4271C94.228 11.4176 94.5299 12.5348 94.5299 13.779C94.5299 15.0231 94.228 16.1464 93.6242 17.1489C93.0204 18.1394 92.2028 18.9124 91.1714 19.468C90.1399 20.0236 89.0015 20.3015 87.7562 20.3015C86.5109 20.3015 85.3663 20.0236 84.3222 19.468C83.2908 18.9124 82.4732 18.1394 81.8694 17.1489C81.2656 16.1464 80.9637 15.0231 80.9637 13.779C80.9637 12.5348 81.2656 11.4176 81.8694 10.4271C82.4732 9.43666 83.2908 8.66362 84.3222 8.108C85.3663 7.55238 86.5109 7.27457 87.7562 7.27457ZM87.7562 10.1191C86.687 10.1191 85.8317 10.4513 85.1902 11.1156C84.5612 11.7799 84.2468 12.6677 84.2468 13.779C84.2468 14.8902 84.5612 15.778 85.1902 16.4423C85.8317 17.1066 86.687 17.4388 87.7562 17.4388C88.8129 17.4388 89.6556 17.1066 90.2846 16.4423C90.9261 15.778 91.2468 14.8902 91.2468 13.779C91.2468 12.6677 90.9261 11.7799 90.2846 11.1156C89.6556 10.4513 88.8129 10.1191 87.7562 10.1191Z" fill="#FDFE62"/>
<path d="M109.492 7.23833L106.738 19.9572L105.325 19.9934L103.004 11.9309L100.702 19.9934H97.004L93.2493 7.27457H96.7021L99.004 16.4242L101.363 7.27457H105.023L107.287 16.2792L109.249 7.27457L109.492 7.23833Z" fill="#FDFE62"/>
<path d="M128.819 19.9934L125.838 15.0472H125.461V19.9934H122.234V7.27457H127.461C128.492 7.27457 129.373 7.45575 130.102 7.81811C130.844 8.18048 131.398 8.65758 131.763 9.24944C132.14 9.8413 132.329 10.4815 132.329 11.17C132.329 11.9068 132.096 12.6254 131.631 13.326C131.165 14.0266 130.404 14.5218 129.347 14.8117L132.593 19.9934H128.819ZM125.461 12.6919H127.461C127.951 12.6919 128.335 12.553 128.612 12.2752C128.901 11.9973 129.046 11.6289 129.046 11.17C129.046 10.723 128.901 10.3546 128.612 10.0648C128.322 9.77486 127.939 9.62992 127.461 9.62992H125.461V12.6919Z" fill="#FDFE62"/>
<path d="M80.1589 25.3926V38.1115H76.9325V32.8391H71.8192V38.1115H68.5928V28.1103H71.8192V30.4838H76.9325V25.3926H80.1589Z" fill="#FDFE62"/>
<path d="M88.0589 25.2114C89.3042 25.2114 90.4426 25.4893 91.474 26.0449C92.5181 26.6005 93.3357 27.3735 93.9269 28.364C94.5307 29.3544 94.8325 30.4717 94.8325 31.7158C94.8325 32.9599 94.5307 34.0833 93.9269 35.0858C93.3231 36.0762 92.5055 36.8493 91.474 37.4049C90.4426 37.9605 89.3042 38.2383 88.0589 38.2383C86.8136 38.2383 85.6689 37.9605 84.6249 37.4049C83.5934 36.8493 82.7758 36.0762 82.1721 35.0858C81.5683 34.0833 81.2664 32.9599 81.2664 31.7158C81.2664 30.4717 81.5683 29.3544 82.1721 28.364C82.7758 27.3735 83.5934 26.6005 84.6249 26.0449C85.6689 25.4893 86.8136 25.2114 88.0589 25.2114ZM88.0589 28.056C86.9897 28.056 86.1344 28.3882 85.4928 29.0525C84.8639 29.7168 84.5494 30.6046 84.5494 31.7158C84.5494 32.8271 84.8639 33.7149 85.4928 34.3792C86.1344 35.0435 86.9897 35.3757 88.0589 35.3757C89.1155 35.3757 89.9583 35.0435 90.5872 34.3792C91.2287 33.7149 91.5495 32.8271 91.5495 31.7158C91.5495 30.6046 91.2287 29.7168 90.5872 29.0525C89.9583 28.3882 89.1155 28.056 88.0589 28.056Z" fill="#FDFE62"/>
<path d="M99.1361 25.3926V32.9841C99.1361 33.7451 99.3311 34.3309 99.721 34.7415C100.111 35.1522 100.683 35.3576 101.438 35.3576C102.193 35.3576 102.771 35.1522 103.174 34.7415C103.576 34.3309 103.778 33.7451 103.778 32.9841V25.3926H107.004V32.9841C107.004 34.1074 106.74 35.0677 106.212 35.8649C105.683 36.65 104.991 37.2418 104.136 37.6404C103.281 38.039 102.363 38.2383 101.381 38.2383C100.4 38.2383 99.4883 38.039 98.6455 37.6404C97.8153 37.2418 97.1487 36.65 96.6455 35.8649C96.1549 35.0677 95.9097 34.1074 95.9097 32.9841V25.3926H99.1361Z" fill="#FDFE62"/>
<path d="M118.082 34.3248C118.082 35.0254 117.874 35.6776 117.459 36.2816C117.057 36.8734 116.478 37.3505 115.723 37.7129C114.981 38.0632 114.138 38.2383 113.195 38.2383C111.648 38.2383 110.415 37.8941 109.497 37.2056C108.591 36.5171 108.138 35.5387 108.138 34.2705H111.572C111.66 35.2851 112.201 35.7924 113.195 35.7924C113.66 35.7924 114.025 35.6776 114.289 35.4481C114.554 35.2066 114.686 34.8925 114.686 34.506C114.686 34.1678 114.572 33.89 114.346 33.6726C114.12 33.4552 113.843 33.2861 113.516 33.1653C113.189 33.0445 112.717 32.8995 112.101 32.7304C111.271 32.513 110.591 32.2896 110.063 32.0601C109.535 31.8306 109.082 31.4803 108.704 31.0092C108.327 30.5382 108.138 29.9101 108.138 29.1249C108.138 28.3398 108.352 27.6513 108.78 27.0595C109.208 26.4676 109.786 26.0147 110.516 25.7006C111.258 25.3745 112.076 25.2114 112.969 25.2114C114.44 25.2114 115.616 25.5255 116.497 26.1536C117.377 26.7696 117.837 27.748 117.874 29.0887H114.365C114.315 28.6297 114.157 28.2794 113.893 28.0379C113.642 27.7842 113.321 27.6574 112.931 27.6574C112.516 27.6574 112.176 27.7601 111.912 27.9654C111.66 28.1707 111.535 28.4848 111.535 28.9075C111.535 29.2578 111.648 29.5477 111.874 29.7772C112.101 29.9946 112.384 30.1698 112.723 30.3026C113.076 30.4234 113.547 30.5563 114.138 30.7012C114.981 30.9307 115.66 31.1542 116.176 31.3716C116.705 31.589 117.151 31.9393 117.516 32.4224C117.893 32.8935 118.082 33.5276 118.082 34.3248Z" fill="#FDFE62"/>
<path d="M122.116 27.7117V30.4476H132.575V32.8029H122.116V35.7562H132.575V38.1115H118.89V25.3564H132.575V27.7117H122.116Z" fill="#FDFE62"/>
<path d="M111.775 9.59368L111.388 12.3295H122.234V14.6849H110.671L110.029 17.6381H122.234V19.9934L106.738 19.9572L109.492 7.23833H122.234V9.59368H111.775Z" fill="#FDFE62"/>
<path d="M68.5928 25.3405V7.23833H74.5829C75.8218 7.23833 76.8893 7.45657 77.7855 7.89303C78.6817 8.31541 79.3737 8.92787 79.8613 9.7304C80.349 10.5329 80.5928 11.4903 80.5928 12.6026C80.5928 13.7008 80.349 14.6512 79.8613 15.4537C79.3737 16.2562 78.6817 16.8757 77.7855 17.3122C76.8893 17.7346 75.8218 17.9458 74.5829 17.9458H70.372L71.7954 16.4041V25.3405H68.5928ZM71.7954 16.7842L70.372 15.158H74.405C75.3934 15.158 76.1315 14.9328 76.6191 14.4822C77.1068 14.0317 77.3506 13.4051 77.3506 12.6026C77.3506 11.786 77.1068 11.1524 76.6191 10.7019C76.1315 10.2513 75.3934 10.0261 74.405 10.0261H70.372L71.7954 8.39989V16.7842Z" fill="#FDFE62"/>
</svg>
