<svg width="30" height="30" viewBox="0 0 30 30" fill="none" xmlns="http://www.w3.org/2000/svg">
<path d="M1.67952 1.70003V0.0316985H6.15884V1.70003H1.67952ZM0.886719 29.9983H14.5757V24.2226H2.01646L0.886719 29.9983ZM5.50809 10.4238L4.3288 9.27594L7.49009 6.08275L8.66938 7.23223L5.50809 10.4238ZM2.36001 22.5542H14.5757V16.6817H3.52278L2.36001 22.5542ZM15.4016 6.73841C13.5407 6.73841 11.9639 6.08497 10.6712 4.77811C9.3785 3.47125 8.73214 1.87855 8.73214 0H22.071C22.071 1.87966 21.4247 3.47236 20.132 4.77811C18.8393 6.08386 17.2625 6.73729 15.4016 6.73841ZM14.5757 13.7004V9.17584H16.2274V13.6987L14.5757 13.7004ZM16.2274 30H29.8867L28.7553 24.2242H16.2274V30ZM16.2274 22.5559H28.4118L27.249 16.6834H16.2274V22.5559ZM25.3595 10.4571L22.1767 7.2339L23.3147 6.08442L26.5371 9.2676L25.3595 10.4571ZM24.6443 1.70003V0.0316985H29.1236V1.70003H24.6443Z" fill="#363700"/>
</svg>
